<svg width="35" height="13" viewBox="0 0 35 13" fill="none" xmlns="http://www.w3.org/2000/svg">
<path d="M34.1924 7.21348H0.807792C0.410677 7.21348 0.0898438 6.89265 0.0898438 6.49553C0.0898438 6.09841 0.410677 5.77758 0.807792 5.77758H32.4581L28.1011 1.42053C27.8206 1.14008 27.8206 0.684633 28.1011 0.404184C28.3815 0.123735 28.837 0.123735 29.1174 0.404184L34.7017 5.98848C34.9081 6.19489 34.9687 6.50226 34.8565 6.77149C34.7443 7.03848 34.4818 7.21348 34.1924 7.21348Z" fill="#1F2230"/>
<path d="M28.6012 12.8045C28.4172 12.8045 28.2332 12.7349 28.0941 12.5936C27.8137 12.3131 27.8137 11.8577 28.0941 11.5772L33.6852 5.98622C33.9656 5.70577 34.421 5.70577 34.7015 5.98622C34.9819 6.26666 34.9819 6.72211 34.7015 7.00256L29.1105 12.5936C28.9691 12.7349 28.7852 12.8045 28.6012 12.8045Z" fill="#1F2230"/>
</svg>
