<svg width="38" height="38" viewBox="0 0 38 38" fill="none" xmlns="http://www.w3.org/2000/svg">
<path d="M32.9333 26.6H31.9415C31.2459 26.6006 30.56 26.7625 29.9376 27.0731C29.032 27.5232 27.9679 27.5232 27.0623 27.0731C26.701 26.8958 26.3176 26.768 25.9223 26.6931L27.1566 17.1H28.4999C28.8497 17.1 29.1333 16.8164 29.1333 16.4667V13.9333C29.1333 13.5836 28.8497 13.3 28.4999 13.3H25.9666V11.4C25.9666 11.232 25.8998 11.071 25.781 10.9522L22.7999 7.97113V6.004L23.7601 5.2364L25.3998 8.51643L26.5334 7.95023L24.7715 4.427L25.5549 3.8H27.8666C28.2164 3.8 28.4999 3.51642 28.4999 3.16667V0.633333C28.4999 0.283575 28.2164 0 27.8666 0H21.5333C18.3869 0.0038 15.8371 2.5536 15.8333 5.7C15.8333 6.04976 16.1168 6.33333 16.4666 6.33333H17.7333V7.97113L16.0188 9.68557C15.9001 9.80432 15.8333 9.96534 15.8333 10.1333V13.3H14.5666V8.23333C14.5657 8.15488 14.55 8.07737 14.5204 8.0047C14.5088 7.98008 14.4957 7.95617 14.4811 7.93313C14.4659 7.89996 14.4481 7.86798 14.4279 7.8375L12.0333 4.845V0.633333C12.0333 0.283575 11.7497 0 11.3999 0H7.59993C7.25018 0 6.9666 0.283575 6.9666 0.633333V4.845L4.57197 7.8375C4.55178 7.86798 4.53397 7.89996 4.51877 7.93313C4.5042 7.95617 4.49106 7.98008 4.4795 8.0047C4.44989 8.07737 4.43422 8.15488 4.43327 8.23333V13.3H1.89993C1.55018 13.3 1.2666 13.5836 1.2666 13.9333V16.4667C1.2666 16.8164 1.55018 17.1 1.89993 17.1H3.24323L5.705 36.1811C5.74577 36.4969 6.01478 36.7334 6.33327 36.7333H21.2419C21.9602 37.5385 22.9876 37.9992 24.0666 38H25.0584C25.754 37.9994 26.4399 37.8375 27.0623 37.5269C27.9679 37.0768 29.032 37.0768 29.9376 37.5269C30.56 37.8375 31.2459 37.9994 31.9415 38H32.9333C35.0311 37.9979 36.7312 36.2978 36.7333 34.2V30.4C36.7312 28.3022 35.0311 26.6021 32.9333 26.6ZM25.9666 1.26667H27.2333V2.53333H25.9666V1.26667ZM27.8666 14.5667V15.8333H18.9999V14.5667H27.8666ZM17.1449 5.06667C17.4626 2.88681 19.3304 1.26944 21.5333 1.26667H24.6999V2.86267L21.9443 5.06667H17.1449ZM21.5333 6.33333V7.6H18.9999V6.33333H21.5333ZM17.0999 10.3955L18.6288 8.86667H21.9044L24.6999 11.6622V13.3H17.0999V10.3955ZM16.4666 14.5667H17.7333V19C17.7319 19.2412 17.8678 19.4622 18.0835 19.57L21.8835 21.47C22.0688 21.5614 22.2093 21.7237 22.273 21.9203C22.3386 22.1313 22.3158 22.3598 22.2097 22.5536C22.0274 22.9193 21.5833 23.068 21.2176 22.8857C21.2171 22.8854 21.2165 22.8851 21.216 22.8849L18.6446 21.5992C18.3303 21.4456 17.9511 21.5759 17.7976 21.8902C17.7555 21.9763 17.7335 22.0709 17.7333 22.1667V28.5C17.7333 29.1996 17.1662 29.7667 16.4666 29.7667V24.0667H15.1999V29.7667H13.9333V24.0667H12.6666V29.7667H11.3999V24.0667H10.1333V29.7667C9.43367 29.7667 8.8666 29.1996 8.8666 28.5V14.5667H16.4666ZM8.23327 1.26667H10.7666V4.43333H8.23327V1.26667ZM7.90393 5.7H11.0959L12.6159 7.6H6.38393L7.90393 5.7ZM5.69993 8.86667H13.2999V13.3H5.69993V8.86667ZM2.53327 15.8333V14.5667H7.59993V15.8333H2.53327ZM20.2666 30.4V34.2C20.2677 34.6318 20.3427 35.0601 20.4883 35.4667H6.88997L4.52003 17.1H7.59993V28.5C7.59993 29.8991 8.73416 31.0333 10.1333 31.0333H16.4666C17.8657 31.0333 18.9999 29.8991 18.9999 28.5V23.1914L20.6542 24.0185C21.6538 24.5119 22.8641 24.1015 23.3575 23.1019C23.3596 23.0977 23.3615 23.0935 23.3636 23.0894C23.6089 22.6031 23.6507 22.039 23.4795 21.5219C23.3107 21.0046 22.941 20.5769 22.4535 20.3351L18.9999 18.6086V17.1H25.8798L24.6537 26.6H24.0666C21.9688 26.6021 20.2687 28.3022 20.2666 30.4ZM35.4666 34.2C35.4666 35.5991 34.3324 36.7333 32.9333 36.7333H31.9415C31.4426 36.7326 30.9508 36.6165 30.5044 36.3939C29.2417 35.7665 27.7581 35.7665 26.4954 36.3939C26.0491 36.6165 25.5572 36.7326 25.0584 36.7333H24.0666C22.6675 36.7333 21.5333 35.5991 21.5333 34.2V33.2247C22.2278 33.8522 23.1305 34.1998 24.0666 34.2H25.0584C25.754 34.1994 26.4399 34.0375 27.0623 33.7269C27.9679 33.2768 29.032 33.2768 29.9376 33.7269C30.56 34.0375 31.2459 34.1994 31.9415 34.2H32.9333C33.8693 34.1998 34.7721 33.8522 35.4666 33.2247V34.2ZM32.9333 32.9333H31.9415C31.4426 32.9326 30.9508 32.8165 30.5044 32.5939C29.2417 31.9665 27.7581 31.9665 26.4954 32.5939C26.0491 32.8165 25.5572 32.9326 25.0584 32.9333H24.0666C22.6675 32.9333 21.5333 31.7991 21.5333 30.4C21.5333 29.0009 22.6675 27.8667 24.0666 27.8667H25.0584C25.5572 27.8674 26.0491 27.9835 26.4954 28.2061C27.7582 28.8331 29.2416 28.8331 30.5044 28.2061C30.9508 27.9835 31.4426 27.8674 31.9415 27.8667H32.9333C34.3324 27.8667 35.4666 29.0009 35.4666 30.4C35.4666 31.7991 34.3324 32.9333 32.9333 32.9333Z" fill="#FF9F0D"/>
</svg>
