<svg width="42" height="42" viewBox="0 0 42 42" fill="none" xmlns="http://www.w3.org/2000/svg">
<g clip-path="url(#clip0_1_3871)">
<path d="M7.74154 33.8743C7.39981 33.8974 7.14144 34.1932 7.16452 34.535L7.31479 36.77C7.3368 37.0953 7.60688 37.348 7.93292 37.3484H7.97542C8.31715 37.3254 8.57553 37.0295 8.55245 36.6878L8.40217 34.4549C8.38017 34.1123 8.0846 33.8523 7.74196 33.8743C7.74179 33.8743 7.74163 33.8743 7.74154 33.8743Z" fill="#FF9F0D"/>
<path d="M38.8475 41.2536L36.6632 30.7516C36.6153 27.8314 34.2362 25.4882 31.3156 25.4845H31.2093V23.8287C31.2088 23.521 30.9823 23.2604 30.6777 23.2173V1.68401C30.6786 1.23742 30.5008 0.808923 30.1839 0.494176C29.5274 -0.163714 28.462 -0.164876 27.8041 0.491602C27.4874 0.807595 27.3096 1.23667 27.3099 1.68401V23.2172C27.0052 23.2603 26.7787 23.5209 26.7783 23.8286V25.4844H26.6685C25.4777 25.4844 24.3213 25.8837 23.3843 26.6186L23.5849 23.6585C24.4679 23.3761 24.9549 22.4314 24.6726 21.5485C24.4496 20.8511 23.8003 20.3787 23.0682 20.3811H4.81515C3.88809 20.3812 3.13664 21.1328 3.13672 22.0598C3.1368 22.7899 3.60872 23.4361 4.30405 23.6585L5.36735 39.4361C5.46623 40.8768 6.66163 41.996 8.10568 42H38.2426C38.585 42.0002 38.8626 41.7228 38.8628 41.3804C38.8628 41.3378 38.8585 41.2953 38.8497 41.2535H38.8475V41.2536ZM28.9934 1.24099C29.1107 1.24157 29.223 1.28831 29.306 1.37109C29.3895 1.45378 29.4365 1.56653 29.4364 1.68401V23.2083H28.5504V1.68401C28.5506 1.43941 28.7488 1.24115 28.9934 1.24099ZM28.0187 24.4489H29.9681V25.4845H28.0187V24.4489ZM26.6684 26.725H31.3156C33.3454 26.7277 35.0704 28.2092 35.3795 30.2154H22.6045C22.9136 28.2092 24.6386 26.7276 26.6684 26.725ZM26.8456 31.4558L26.4355 40.7595H24.1558L25.3162 31.4558H26.8456ZM28.086 31.4558H29.8936L30.303 40.7595H27.6777L28.086 31.4558ZM31.1341 31.4558H32.6639L33.8239 40.7595H31.5467L31.1341 31.4558ZM4.81623 21.6205H23.0692C23.3139 21.6205 23.5122 21.8189 23.5122 22.0636C23.5122 22.3082 23.3139 22.5066 23.0692 22.5066H4.81623C4.57156 22.5066 4.37321 22.3082 4.37321 22.0636C4.37321 21.8189 4.57156 21.6205 4.81623 21.6205ZM22.1831 23.7471C21.3991 26.8622 18.6029 29.0494 15.3905 29.0599H12.4346C9.21821 29.0639 6.41529 26.8701 5.64623 23.7471H22.1831ZM6.60284 39.3532L5.76462 26.9008C6.01951 27.252 6.30146 27.5826 6.60783 27.89C8.15068 29.4378 10.2477 30.3054 12.4332 30.3001H15.3891C18.0733 30.2912 20.5862 28.9799 22.1285 26.7832L22.0346 28.1686C21.581 28.9532 21.3356 29.8408 21.3218 30.7471L19.2385 40.7596H8.10352C7.31179 40.7571 6.65664 40.1431 6.60284 39.3532ZM22.4411 31.4558H24.0661L22.9061 40.7595H20.5056L22.4411 31.4558ZM35.0772 40.7595L33.9168 31.4558H35.5422L37.4781 40.7595H35.0772Z" fill="#FF9F0D"/>
</g>
<defs>
<clipPath id="clip0_1_3871">
<rect width="42" height="42" fill="white"/>
</clipPath>
</defs>
</svg>
