<svg width="36" height="36" viewBox="0 0 36 36" fill="none" xmlns="http://www.w3.org/2000/svg">
<path d="M30.9902 8.33449L23.3765 0.720914C22.9117 0.256008 22.2937 0 21.6363 0H6.75C5.39304 0 4.28906 1.10398 4.28906 2.46094V33.5391C4.28906 34.896 5.39304 36 6.75 36H29.25C30.607 36 31.7109 34.896 31.7109 33.5391V10.0747C31.7109 9.41745 31.455 8.79947 30.9902 8.33449ZM28.11 8.4375H23.625C23.4311 8.4375 23.2734 8.27979 23.2734 8.08594V3.60098L28.11 8.4375ZM29.25 33.8906H6.75C6.55615 33.8906 6.39844 33.7329 6.39844 33.5391V2.46094C6.39844 2.26709 6.55615 2.10938 6.75 2.10938H21.1641V8.08594C21.1641 9.4429 22.268 10.5469 23.625 10.5469H29.6016V33.5391C29.6016 33.7329 29.4439 33.8906 29.25 33.8906Z" fill="#FF9F0D"/>
<path d="M19.1318 16.1016H25.8517C26.4341 16.1016 26.9064 15.6293 26.9064 15.0469C26.9064 14.4644 26.4341 13.9922 25.8517 13.9922H19.1318C18.5494 13.9922 18.0771 14.4644 18.0771 15.0469C18.0771 15.6293 18.5493 16.1016 19.1318 16.1016Z" fill="#FF9F0D"/>
<path d="M19.1318 23.1328H25.8517C26.4341 23.1328 26.9064 22.6606 26.9064 22.0781C26.9064 21.4957 26.4341 21.0234 25.8517 21.0234H19.1318C18.5494 21.0234 18.0771 21.4957 18.0771 22.0781C18.0771 22.6606 18.5493 23.1328 19.1318 23.1328Z" fill="#FF9F0D"/>
<path d="M25.8818 28.0547H19.1318C18.5494 28.0547 18.0771 28.5269 18.0771 29.1094C18.0771 29.6918 18.5494 30.1641 19.1318 30.1641H25.8818C26.4643 30.1641 26.9365 29.6918 26.9365 29.1094C26.9365 28.5269 26.4643 28.0547 25.8818 28.0547Z" fill="#FF9F0D"/>
<path d="M13.8697 12.1751L11.4375 14.6073L10.8639 14.0338C10.4521 13.6219 9.78429 13.6219 9.37239 14.0338C8.9605 14.4457 8.9605 15.1134 9.37239 15.5253L10.6917 16.8447C10.8977 17.0506 11.1676 17.1536 11.4375 17.1536C11.7073 17.1536 11.9773 17.0507 12.1832 16.8447L15.3612 13.6667C15.7731 13.2548 15.7731 12.587 15.3612 12.1751C14.9494 11.7632 14.2815 11.7632 13.8697 12.1751Z" fill="#FF9F0D"/>
<path d="M13.8697 19.7433L11.4375 22.1755L10.8639 21.602C10.4521 21.1901 9.78429 21.1901 9.37239 21.602C8.9605 22.0139 8.9605 22.6816 9.37239 23.0935L10.6917 24.4128C10.8977 24.6187 11.1676 24.7217 11.4375 24.7217C11.7073 24.7217 11.9773 24.6187 12.1832 24.4127L15.3612 21.2347C15.7731 20.8228 15.7731 20.1551 15.3612 19.7432C14.9494 19.3314 14.2815 19.3314 13.8697 19.7433Z" fill="#FF9F0D"/>
<path d="M13.8697 26.7745L11.4375 29.2068L10.8639 28.6332C10.4521 28.2214 9.78429 28.2213 9.37239 28.6332C8.9605 29.0451 8.9605 29.7129 9.37239 30.1248L10.6917 31.444C10.8977 31.65 11.1676 31.7529 11.4375 31.7529C11.7073 31.7529 11.9773 31.65 12.1832 31.444L15.3612 28.266C15.7731 27.8541 15.7731 27.1863 15.3612 26.7744C14.9494 26.3626 14.2815 26.3626 13.8697 26.7745Z" fill="#FF9F0D"/>
</svg>
