<svg width="30" height="30" viewBox="0 0 30 30" fill="none" xmlns="http://www.w3.org/2000/svg">
<g clip-path="url(#clip0_1_2592)">
<path d="M15.6191 16.9947C14.4984 16.9895 13.3849 16.8139 12.3169 16.4739C10.6105 15.903 9.34302 14.4584 8.99899 12.6922C8.62254 10.879 9.30859 8.96173 10.8808 7.43223C11.0495 7.26793 11.2248 7.11054 11.4067 6.96008C13.0166 5.61235 15.1869 5.14398 17.2092 5.70788C19.1671 6.33278 20.52 8.12206 20.5876 10.1761C20.6609 11.3585 20.2756 12.5236 19.5117 13.4291C18.9225 14.1712 17.968 14.5218 17.0385 14.3373C16.6584 14.2584 16.3268 14.0282 16.12 13.6997C15.9344 13.3806 15.8868 12.9996 15.9882 12.6447C16.4254 10.9919 16.87 8.48013 16.8744 8.45468C16.9054 8.27872 17.028 8.1327 17.1959 8.07162C17.3638 8.01054 17.5516 8.04368 17.6884 8.15855C17.8253 8.27342 17.8904 8.45257 17.8594 8.62853C17.8408 8.73303 17.4031 11.2071 16.9551 12.9003C16.9231 12.9941 16.9311 13.097 16.9773 13.1847C17.0464 13.2803 17.1507 13.3446 17.2673 13.3634C17.8363 13.4583 18.411 13.2301 18.7597 12.7706C19.3529 12.061 19.6502 11.1501 19.5897 10.2272C19.5408 8.59217 18.4687 7.16471 16.912 6.66218C15.2129 6.19483 13.3926 6.59408 12.045 7.72968C11.8843 7.86303 11.7281 8.00263 11.5782 8.14863C10.8009 8.90473 9.55964 10.4736 9.97789 12.4886C10.2589 13.8964 11.2643 15.0501 12.6204 15.5209C14.9654 16.2689 18.335 16.359 20.1104 14.1515C20.2849 13.9414 20.5956 13.9101 20.8084 14.0812C21.0212 14.2523 21.0574 14.5624 20.8897 14.7779C19.5769 16.4106 17.5791 16.9947 15.6191 16.9947Z" fill="#FF9F0D"/>
<path d="M13.9077 14.4025C13.3792 14.4116 12.8637 14.2383 12.448 13.9118C11.4883 13.1437 11.4619 11.8095 11.7309 10.9008C11.8215 10.5982 11.9432 10.3058 12.094 10.0282C12.4691 9.27126 13.069 8.64872 13.8115 8.24575C14.7362 7.76595 15.866 7.9479 16.5932 8.69375C16.954 9.08916 17.2258 9.55738 17.3902 10.0668C17.4773 10.3253 17.3411 10.6059 17.0841 10.6974C16.8272 10.7889 16.5443 10.6576 16.4483 10.4023C16.3298 10.0259 16.1328 9.67898 15.8702 9.3844C15.4462 8.95078 14.7855 8.85212 14.2533 9.14295C13.6965 9.45699 13.249 9.93379 12.9708 10.5094C12.8539 10.7251 12.7595 10.9522 12.6891 11.1872C12.4948 11.8444 12.5375 12.7022 13.0736 13.1315C13.6598 13.6022 14.6486 13.4032 15.205 12.9233C15.6196 12.55 15.9758 12.1166 16.2618 11.6376C16.3544 11.4824 16.5236 11.3893 16.7042 11.394C16.8849 11.3987 17.0489 11.5006 17.1333 11.6604C17.2177 11.8202 17.2093 12.013 17.1113 12.1649C16.7726 12.7293 16.3509 13.2396 15.8603 13.6786C15.3136 14.1399 14.623 14.3959 13.9077 14.4025Z" fill="#FF9F0D"/>
<path d="M28.5 29.9998H1.5C0.67195 29.9989 0.000909355 29.3279 0 28.4998V9.99983C7.86e-06 9.80594 0.112108 9.62954 0.287642 9.54719C0.463175 9.46484 0.670491 9.4914 0.8196 9.61533L13.0882 19.8116C14.1982 20.7284 15.8028 20.7281 16.9126 19.8109L29.18 9.61533C29.3291 9.49114 29.5366 9.46443 29.7123 9.54681C29.888 9.6292 30.0001 9.80579 30 9.99983V28.4998C29.9991 29.3279 29.3281 29.9989 28.5 29.9998ZM1 11.0655V28.4998C1.00036 28.7758 1.22401 28.9995 1.5 28.9998H28.5C28.776 28.9996 28.9998 28.7759 29 28.4998V11.0655L17.5511 20.5805C16.0707 21.8038 13.9304 21.8042 12.4497 20.5812L1 11.0655Z" fill="#FF9F0D"/>
<path d="M0.500489 10.5C0.282704 10.5002 0.0898419 10.3594 0.0236724 10.1519C-0.0424972 9.94446 0.0332484 9.718 0.210939 9.59208L4.71094 6.40208C4.93624 6.24593 5.24525 6.3003 5.40373 6.52396C5.56221 6.74763 5.51105 7.05719 5.28904 7.21798L0.789039 10.408C0.704777 10.4679 0.603908 10.5001 0.500489 10.5Z" fill="#FF9F0D"/>
<path d="M29.4997 10.5C29.3963 10.5001 29.2954 10.4679 29.2112 10.408L24.7112 7.21798C24.4891 7.05719 24.438 6.74763 24.5965 6.52396C24.7549 6.3003 25.064 6.24593 25.2892 6.40208L29.7892 9.59208C29.9669 9.718 30.0427 9.94446 29.9765 10.1519C29.9103 10.3594 29.7175 10.5002 29.4997 10.5Z" fill="#FF9F0D"/>
<path d="M19.6195 3.49967C19.516 3.49973 19.415 3.46756 19.3306 3.40762L16.9406 1.71262C15.8312 0.775116 14.21 0.76535 13.0893 1.68942L10.6693 3.40767C10.5236 3.51103 10.3337 3.52878 10.1714 3.45424C10.009 3.3797 9.8987 3.22419 9.88206 3.04629C9.86542 2.86839 9.94496 2.69513 10.0907 2.59177L12.4807 0.896773C13.9575 -0.310744 16.0833 -0.30114 17.5491 0.919673L19.9091 2.59157C20.087 2.71746 20.1628 2.94403 20.0966 3.15161C20.0304 3.3592 19.8373 3.50001 19.6195 3.49967Z" fill="#FF9F0D"/>
<path d="M0.825169 29.7297C0.614453 29.7299 0.426238 29.598 0.354554 29.3998C0.282871 29.2017 0.343107 28.9799 0.505169 28.8452L11.9152 19.3652C12.0523 19.2486 12.2415 19.2147 12.4105 19.2764C12.5796 19.3381 12.7024 19.4859 12.7322 19.6634C12.7619 19.8409 12.694 20.0207 12.5543 20.1342L1.14432 29.6142C1.05474 29.6889 0.941796 29.7298 0.825169 29.7297Z" fill="#FF9F0D"/>
<path d="M29.1743 29.7297C29.0578 29.7298 28.945 29.6889 28.8555 29.6142L17.4455 20.1342C17.3058 20.0207 17.2379 19.8409 17.2676 19.6634C17.2974 19.4859 17.4202 19.3381 17.5893 19.2764C17.7584 19.2147 17.9475 19.2486 18.0846 19.3652L29.4944 28.8452C29.6564 28.9799 29.7166 29.2017 29.645 29.3998C29.5733 29.598 29.3851 29.7299 29.1743 29.7297V29.7297Z" fill="#FF9F0D"/>
<path d="M25 14.2398C24.7239 14.2398 24.5 14.016 24.5 13.7398V3.50374C24.4986 3.51424 24.4785 3.50009 24.445 3.49984H5.555C5.5329 3.49848 5.51121 3.50626 5.495 3.52134L5.5 13.7398C5.5 14.016 5.27614 14.2398 5 14.2398C4.72386 14.2398 4.5 14.016 4.5 13.7398V3.49984C4.51613 2.93279 4.9879 2.48562 5.555 2.49984H24.445C25.0121 2.48567 25.4838 2.93281 25.5 3.49984V13.7398C25.5 14.016 25.2761 14.2398 25 14.2398Z" fill="#FF9F0D"/>
</g>
<defs>
<clipPath id="clip0_1_2592">
<rect width="30" height="30" fill="white"/>
</clipPath>
</defs>
</svg>
