<svg width="50" height="50" viewBox="0 0 50 50" fill="none" xmlns="http://www.w3.org/2000/svg">
<path d="M49.6203 23.3349L40.3949 15.4566C40.4057 15.4028 40.4165 15.3489 40.4272 15.2842V4.98108C40.4165 4.36677 39.9315 3.87102 39.3172 3.84946H34.1656C33.5729 3.84946 33.0879 4.37755 33.0879 4.98108V9.2489L25.7054 2.95494C25.3067 2.61007 24.7139 2.61007 24.3044 2.95494L0.389482 23.3241C-0.0739428 23.7013 -0.127829 24.3803 0.249377 24.8437C0.626583 25.3071 1.30555 25.361 1.76898 24.9838C1.77976 24.973 1.77976 24.973 1.79053 24.9622L25.0049 5.19663L33.3142 12.2773L38.2826 16.502L48.23 24.973C48.6827 25.361 49.3616 25.3071 49.7496 24.8545C50.1268 24.4018 50.073 23.7228 49.6203 23.3349ZM38.261 13.6353L35.2434 11.0918V6.01571H38.261V13.6353Z" fill="#FF9F0D"/>
<path d="M44.8677 25.5122L41.8393 22.9257L25.7056 9.14147C25.3068 8.79659 24.7141 8.79659 24.3046 9.14147L8.1709 22.9257L5.14247 25.5122C4.68982 25.9002 4.63594 26.5792 5.02392 27.0318C5.40113 27.4845 6.06932 27.5384 6.51119 27.1612L6.52197 27.1504L7.86913 25.9864V46.1939C7.87991 46.7974 8.37567 47.2932 8.9792 47.304H41.0202C41.6237 47.2932 42.1195 46.8082 42.1302 46.1939V25.9864L43.4774 27.1504C43.6714 27.312 43.9085 27.409 44.1672 27.409C44.4797 27.409 44.7815 27.2689 44.9862 27.0318C45.385 26.5684 45.3203 25.8894 44.8677 25.5122ZM29.316 45.1377H20.6942V33.4982H29.316V45.1377ZM31.4715 45.1377V32.4528C31.4715 31.8601 31.0296 31.3428 30.4369 31.3428H19.5733C18.9806 31.3428 18.5387 31.8601 18.5387 32.4528V45.1377H10.0246V24.1435L25.0051 11.3832L39.9856 24.1435V45.1377H31.4715Z" fill="#FF9F0D"/>
</svg>
