<svg width="50" height="50" viewBox="0 0 50 50" fill="none" xmlns="http://www.w3.org/2000/svg">
<g clip-path="url(#clip0_1_4024)">
<path d="M24.9132 6.35352C25.4563 6.35352 25.8967 5.91318 25.8967 5.37002V0.983496C25.8967 0.440332 25.4563 0 24.9132 0C24.37 0 23.9297 0.440332 23.9297 0.983496V5.37002C23.9298 5.91318 24.3701 6.35352 24.9132 6.35352Z" fill="#FF9F0D"/>
<path d="M48.9537 33.7878L47.2163 32.0552C46.5982 31.4379 45.7745 31.0979 44.8968 31.0979C44.3355 31.0979 43.7968 31.2376 43.3193 31.4992L40.0453 28.2291L40.2048 28.0698C41.533 26.7389 41.5325 24.5763 40.2047 23.25C39.7302 22.7746 39.1381 22.4576 38.4927 22.3242C38.5815 22.0174 38.6283 21.6962 38.6283 21.3673C38.6283 20.4538 38.2734 19.5971 37.6311 18.9574C37.1564 18.482 36.5644 18.165 35.919 18.0316C36.0079 17.7249 36.0547 17.4037 36.0547 17.0748C36.0547 16.1611 35.6998 15.3046 35.0563 14.6638C34.5704 14.1785 33.973 13.8713 33.3458 13.7405C33.6813 12.5836 33.3946 11.2819 32.4845 10.3702C31.7269 9.61578 30.6988 9.29156 29.7081 9.39664L23.2203 8.16861C22.2309 7.98092 20.9952 7.8568 20.2152 8.56822C20.166 8.61315 20.1158 8.66481 20.0664 8.72233C18.857 8.28151 17.4465 8.54401 16.478 9.51139C15.8355 10.1531 15.4816 11.0093 15.4816 11.9224C15.4816 12.2513 15.5282 12.5725 15.617 12.8794C14.9723 13.0127 14.381 13.3293 13.908 13.8031C13.2643 14.4442 12.9093 15.2995 12.9086 16.2115C12.9083 16.5412 12.9551 16.8634 13.0443 17.1711C12.3993 17.3041 11.8076 17.6201 11.3332 18.0939C10.6895 18.737 10.335 19.5937 10.335 20.5063C10.335 21.2053 10.5437 21.8713 10.9304 22.4338C10.4421 22.5993 9.99482 22.8748 9.62031 23.2489C8.29121 24.5763 8.29072 26.739 9.62119 28.0718L9.78008 28.23L6.50566 31.4985C5.28877 30.9255 3.78945 31.1402 2.78525 32.1431L1.04678 33.8767C0.428418 34.4943 0.0879883 35.3181 0.0878906 36.1963C0.0878906 37.0747 0.428418 37.8986 1.04678 38.5163L3.21641 40.6833C3.60068 41.0671 4.22344 41.0668 4.60723 40.6825C4.99111 40.2982 4.99072 39.6754 4.60644 39.2917L2.43682 37.1247C2.19053 36.8787 2.05488 36.549 2.05488 36.1964C2.05488 35.844 2.19053 35.5144 2.43623 35.269L4.1748 33.5353C4.60918 33.1014 5.27402 33.0368 5.77891 33.3386C5.81445 33.392 5.85557 33.4428 5.90264 33.49C5.98691 33.5745 6.08311 33.6392 6.18525 33.6866L16.1553 43.642C16.2026 43.7452 16.2677 43.8423 16.3525 43.9273C16.4352 44.01 16.5294 44.074 16.6294 44.1211C16.8402 44.3594 16.9567 44.6639 16.9567 44.9887C16.9567 45.3413 16.8211 45.6709 16.5748 45.9169L14.838 47.6516C14.3248 48.1626 13.49 48.1625 12.9784 47.6532L10.8088 45.4834C10.4247 45.0993 9.80205 45.0993 9.41797 45.4834C9.03389 45.8674 9.03389 46.4901 9.41797 46.8742L11.5892 49.0456C12.2282 49.682 13.0675 50.0001 13.9071 50.0001C14.747 50.0001 15.5872 49.6815 16.227 49.0445L17.9649 47.3087C18.5833 46.691 18.9238 45.8671 18.9238 44.9887C18.9238 44.3619 18.7495 43.7632 18.4254 43.247L22.1105 39.5664C22.1145 39.5624 22.1184 39.5584 22.1224 39.5544C22.5443 39.1181 23.7194 39.1998 24.8559 39.2787C25.6633 39.3348 26.5635 39.3972 27.443 39.2959L31.4785 43.3266C31.2171 43.8033 31.0775 44.3414 31.0775 44.9017C31.0775 45.7792 31.4181 46.6025 32.0364 47.2202L33.7744 48.956C34.3924 49.5733 35.2161 49.9133 36.0938 49.9133C36.9715 49.9133 37.7952 49.5734 38.4133 48.956L48.9544 38.4277C49.5727 37.8101 49.9133 36.9863 49.9133 36.108C49.9132 35.2297 49.5727 34.4059 48.9537 33.7878ZM22.8541 10.1012L27.1204 10.9088L24.5668 13.4614C24.1718 13.2715 23.6304 12.9174 23.0364 12.3493C22.2234 11.5715 21.6419 10.6736 21.589 10.1135C21.5889 10.1132 21.5889 10.113 21.5889 10.1127C21.5889 10.1126 21.5888 10.1125 21.5888 10.1124C21.585 10.0721 21.584 10.04 21.5845 10.0155C21.7131 9.98424 22.0547 9.94957 22.8541 10.1012ZM17.868 10.9031C18.3662 10.4053 19.1402 10.3479 19.7032 10.7292C20.0223 12.0669 21.1634 13.2793 21.6768 13.7705C22.0572 14.1345 23.278 15.226 24.5103 15.526C24.677 15.765 24.7677 16.0499 24.7677 16.3505C24.7677 16.7377 24.6187 17.0997 24.3474 17.3708C24.0768 17.6419 23.7142 17.7911 23.3263 17.7911C22.9383 17.7911 22.5757 17.6419 22.3038 17.3695L22.3037 17.3694L22.3032 17.3689L17.8679 12.9416C17.5975 12.6715 17.4485 12.3095 17.4485 11.9224C17.4486 11.5352 17.5976 11.1732 17.868 10.9031ZM15.298 15.1948C15.5687 14.9238 15.9309 14.7745 16.3182 14.7745C16.706 14.7745 17.0693 14.9241 17.3417 15.1962L20.9132 18.7605C21.4756 19.3238 21.4756 20.2404 20.9151 20.8017C20.6431 21.0727 20.2792 21.2219 19.8906 21.2219C19.502 21.2219 19.1382 21.0727 18.8673 20.8029L18.8672 20.8028L16.1577 18.0939C16.1535 18.0897 16.1489 18.0858 16.1446 18.0815L15.297 17.2342C15.025 16.9626 14.8753 16.5999 14.8756 16.2129C14.876 15.8273 15.0252 15.4665 15.298 15.1948ZM12.7232 19.4856C12.994 19.2152 13.357 19.0663 13.7455 19.0663C14.1308 19.0663 14.4906 19.213 14.7603 19.4788L17.478 22.1953C17.749 22.4652 17.8983 22.8268 17.8983 23.2135C17.8983 23.6002 17.749 23.9618 17.477 24.2328C17.2062 24.5031 16.8437 24.652 16.4559 24.652C16.0675 24.652 15.7037 24.5027 15.4326 24.2328L14.4474 23.2487C14.4472 23.2484 14.4469 23.2482 14.4467 23.248L12.7233 21.5267C12.4517 21.2553 12.3021 20.8928 12.3021 20.5061C12.3021 20.1195 12.4517 19.7569 12.7232 19.4856ZM11.0104 24.6405C11.2823 24.3688 11.6458 24.2192 12.0338 24.2192C12.4217 24.2192 12.7851 24.3687 13.0569 24.6402L14.0436 25.6256C14.3146 25.8956 14.4639 26.2572 14.4639 26.6439C14.4639 27.0306 14.3146 27.3921 14.0415 27.6642C13.7709 27.9352 13.4083 28.0845 13.0204 28.0845C12.6324 28.0845 12.2698 27.9353 11.9973 27.6623L11.8737 27.5392C11.8721 27.5376 11.8708 27.5358 11.8692 27.5342C11.8674 27.5325 11.8654 27.5309 11.8636 27.5292L11.0113 26.6802C10.4489 26.1167 10.4484 25.2017 11.0104 24.6405ZM31.0527 35.818C30.6688 35.4337 30.0461 35.4334 29.6619 35.8171L28.7869 36.6911C27.9555 37.5225 26.4489 37.4178 24.992 37.3168C23.4099 37.2068 21.7738 37.0933 20.7151 38.1802L17.0926 41.7984L8.03369 32.7528L11.2395 29.5527C11.7694 29.8775 12.3809 30.0516 13.0206 30.0516C13.9346 30.0516 14.7916 29.6973 15.4317 29.056C16.0762 28.4142 16.4312 27.5577 16.4312 26.644C16.4312 26.6355 16.4306 26.6271 16.4306 26.6186C16.4391 26.6187 16.4476 26.6192 16.4561 26.6192C17.3687 26.6192 18.2251 26.266 18.8661 25.6257C19.5105 24.9839 19.8655 24.1273 19.8655 23.2137C19.8655 23.2052 19.8649 23.1968 19.8649 23.1883C19.8735 23.1883 19.8821 23.1889 19.8908 23.1889C20.8032 23.1889 21.6601 22.8361 22.3054 22.1934C22.9753 21.5224 23.3066 20.639 23.3003 19.7575C23.3091 19.7576 23.3179 19.7581 23.3267 19.7581C24.2406 19.758 25.0976 19.4038 25.7387 18.7615C26.3812 18.1198 26.7351 17.2635 26.7351 16.3505C26.7351 15.7119 26.5614 15.1014 26.2377 14.5726L29.0476 11.7639C29.2569 11.5554 29.5151 11.4246 29.7857 11.3706C29.815 11.3674 29.8439 11.3628 29.8726 11.3571C30.3067 11.2972 30.7627 11.4312 31.0947 11.7619C31.6571 12.3253 31.6571 13.2419 31.0968 13.8032L30.241 14.6554C30.2382 14.6583 30.2352 14.6608 30.2323 14.6636L29.2467 15.6476C28.8623 16.0314 28.8619 16.6542 29.2458 17.0384C29.6298 17.4228 30.2524 17.4231 30.6366 17.0393L31.4958 16.1813C31.496 16.1811 31.4962 16.1809 31.4964 16.1807L31.6263 16.0513C32.1902 15.4925 33.1039 15.4937 33.6673 16.0563C33.9384 16.3262 34.0877 16.6879 34.0877 17.0746C34.0877 17.4612 33.9384 17.8228 33.6651 18.0949L32.8045 18.9573C32.8044 18.9574 32.8043 18.9575 32.8042 18.9577L31.8186 19.9392C31.4338 20.3225 31.4325 20.9453 31.8158 21.33C32.1991 21.7149 32.8218 21.7161 33.2066 21.3329L34.1967 20.3468C34.4673 20.0757 34.8299 19.9265 35.2178 19.9265C35.6058 19.9265 35.9685 20.0757 36.241 20.3488C36.5121 20.6188 36.6613 20.9804 36.6613 21.3671C36.6613 21.7538 36.5121 22.1154 36.2394 22.3869L34.5236 24.1034C34.1396 24.4876 34.1397 25.1102 34.5238 25.4942C34.7159 25.6862 34.9675 25.7821 35.2191 25.7821C35.4709 25.7821 35.7227 25.686 35.9146 25.4939L36.7556 24.6527C36.7603 24.6481 36.7655 24.6441 36.7703 24.6393C37.0409 24.3682 37.4035 24.219 37.7914 24.219C38.1794 24.219 38.542 24.3682 38.8136 24.6403C39.3754 25.2015 39.3749 26.1166 38.8136 26.6789L37.9586 27.5329C37.9583 27.5332 37.9579 27.5335 37.9576 27.5338C37.9573 27.534 37.957 27.5344 37.9567 27.5347L36.5997 28.8901C36.2154 29.274 36.215 29.8967 36.5988 30.281C36.7909 30.4733 37.0429 30.5695 37.2947 30.5695C37.5462 30.5695 37.7977 30.4736 37.9897 30.2819L38.6535 29.6189L41.8349 32.7965L32.7768 41.8436L29.5312 38.602C29.7575 38.4565 29.974 38.2854 30.1772 38.0822L31.0518 37.2087C31.4362 36.8251 31.4366 36.2023 31.0527 35.818ZM47.5643 37.036L37.0231 47.5643C36.7766 47.8106 36.4465 47.9462 36.0937 47.9462C35.741 47.9462 35.4109 47.8106 35.1643 47.5642L33.4263 45.8284C33.18 45.5825 33.0443 45.2534 33.0443 44.9017C33.0443 44.5502 33.18 44.2211 33.4263 43.9751L43.9674 33.4467C44.2141 33.2004 44.544 33.0647 44.8969 33.0647C45.2496 33.0647 45.5797 33.2004 45.8269 33.4473L47.5644 35.1798C47.8106 35.4258 47.9463 35.7553 47.9463 36.1079C47.9462 36.4605 47.8105 36.7901 47.5643 37.036Z" fill="#FF9F0D"/>
<path d="M11.853 5.52443C12.045 5.71603 12.2964 5.81173 12.5477 5.81173C12.7997 5.81173 13.0517 5.71544 13.2438 5.52296C13.6275 5.13849 13.6269 4.51583 13.2425 4.13214L9.65867 0.555481C9.27429 0.17179 8.65154 0.172278 8.26785 0.556849C7.88416 0.941321 7.88474 1.56398 8.26921 1.94767L11.853 5.52443Z" fill="#FF9F0D"/>
<path d="M37.2774 5.81169C37.5289 5.81169 37.7804 5.7158 37.9724 5.5241L41.5535 1.94734C41.9378 1.56355 41.9382 0.940796 41.5543 0.556519C41.1705 0.172241 40.5478 0.171851 40.1635 0.555737L36.5824 4.1325C36.1981 4.51628 36.1977 5.13904 36.5816 5.52332C36.7737 5.7156 37.0256 5.81169 37.2774 5.81169Z" fill="#FF9F0D"/>
<path d="M6.13468 42.3052C5.75392 42.6926 5.75919 43.3153 6.14659 43.6961L6.14943 43.6988C6.34054 43.8867 6.58868 43.9802 6.83673 43.9802C7.09132 43.9802 7.34591 43.8817 7.53878 43.6855C7.91954 43.2982 7.9128 42.6741 7.5255 42.2933C7.13829 41.9126 6.51564 41.9179 6.13468 42.3052Z" fill="#FF9F0D"/>
<path d="M33.4577 34.4013C33.6073 34.4013 33.759 34.3672 33.9015 34.2954C34.3865 34.0508 34.5813 33.4594 34.3368 32.9744C34.0921 32.4895 33.5006 32.2945 33.0158 32.5392L33.0103 32.5419C32.5253 32.7865 32.3333 33.3766 32.5778 33.8615C32.7504 34.2041 33.0977 34.4013 33.4577 34.4013Z" fill="#FF9F0D"/>
</g>
<defs>
<clipPath id="clip0_1_4024">
<rect width="50" height="50" fill="white"/>
</clipPath>
</defs>
</svg>
