<svg width="38" height="50" viewBox="0 0 38 50" fill="none" xmlns="http://www.w3.org/2000/svg">
<path d="M6.62217 17.7154C6.92324 17.5364 7.23047 17.3522 7.54385 17.1529L7.54248 14.5833H7.5418C6.96601 14.5833 6.5001 14.1174 6.5001 13.5416V7.2916C6.5001 3.27148 9.77158 0 13.7918 0H25.2501C26.3996 0 27.3334 0.934863 27.3334 2.0833H29.4167C30.5662 2.0833 31.5 3.01816 31.5 4.1666V6.25C31.5 7.39844 30.5661 8.3333 29.4167 8.3333H27.3334C27.3334 9.48174 26.3995 10.4166 25.2501 10.4166H24.0715L27.1585 15.0472C27.3722 15.3666 27.3925 15.7775 27.2094 16.1163C27.0283 16.4551 26.6764 16.6666 26.2918 16.6666H24.2085C23.9826 16.6666 23.7629 16.5934 23.5839 16.4581L16.9168 11.4578V13.5417C16.9168 14.1175 16.4509 14.5834 15.8751 14.5834V17.1591L15.985 17.2354C19.8383 19.8608 23.1668 22.1294 23.1668 38.5417V45.8334C23.1668 48.1313 21.2971 50 19.0001 50H4.4168C2.11982 50 0.250099 48.1313 0.250099 45.8333V38.5416C0.250099 22.3439 2.67119 20.0755 6.62217 17.7154ZM27.3334 6.25H29.4167V4.1667H27.3334V6.25ZM24.1352 14.268L21.5676 10.4166H18.9995L24.1352 14.268ZM25.2501 8.3333V2.0833H13.7918C10.919 2.0833 8.5835 4.41992 8.5835 7.2916V12.5H14.8335V9.375C14.8335 8.79922 15.2994 8.3333 15.8752 8.3333H25.2501ZM14.8131 18.9565L14.2414 18.5649C13.9586 18.3706 13.7918 18.0502 13.7918 17.7084V14.5834H9.6251L9.62715 17.7094C9.62715 18.0521 9.46035 18.3716 9.17754 18.5669C8.6709 18.9179 8.17451 19.2159 7.69033 19.5048C5.24219 20.9668 3.2168 22.1888 2.55996 31.25H20.8046C20.0192 22.5056 17.6593 20.896 14.8131 18.9565ZM2.3334 45.8333C2.3334 46.9817 3.26728 47.9166 4.4167 47.9166H19.0001C20.1496 47.9166 21.0834 46.9817 21.0834 45.8333V43.75H2.3334V45.8333ZM2.3334 41.6667H21.0834V38.5417C21.0834 36.5973 21.0378 34.8733 20.9526 33.3334H2.43809C2.36992 34.8716 2.3333 36.5952 2.3333 38.5417V41.6667H2.3334Z" fill="#FF9F0D"/>
<path d="M33.5833 5.2082C33.5833 4.63242 34.0492 4.1665 34.625 4.1665H36.7083C37.2841 4.1666 37.75 4.63252 37.75 5.2082C37.75 5.78398 37.2841 6.2499 36.7083 6.2499H34.625C34.0492 6.2499 33.5833 5.78398 33.5833 5.2082Z" fill="#FF9F0D"/>
<path d="M36.1322 1.97321L34.0509 3.01491C33.9024 3.08913 33.7416 3.12477 33.585 3.12477C33.2045 3.12477 32.8362 2.91422 32.6531 2.54899C32.3968 2.03532 32.6043 1.40866 33.1191 1.15123L35.2005 0.109633C35.7071 -0.143687 36.3399 0.0598287 36.5983 0.575551C36.8545 1.08922 36.647 1.71588 36.1322 1.97321Z" fill="#FF9F0D"/>
<path d="M34.049 7.40139L36.1323 8.44299C36.647 8.70032 36.8545 9.326 36.5982 9.84075C36.4151 10.206 36.0468 10.4165 35.6664 10.4165C35.5097 10.4165 35.351 10.3809 35.2004 10.3067L33.1171 9.26497C32.6024 9.00764 32.3949 8.38196 32.6512 7.86721C32.9096 7.35256 33.5322 7.1471 34.049 7.40139Z" fill="#FF9F0D"/>
</svg>
