<svg width="46" height="46" viewBox="0 0 46 46" fill="none" xmlns="http://www.w3.org/2000/svg">
<path d="M31.144 28.25H25.5725L26.7333 24.3929C27.0883 23.2396 26.9767 21.993 26.4224 20.9211C25.868 19.8492 24.9153 19.0376 23.769 18.6607C23.4397 18.5522 23.0917 18.5128 22.7465 18.5451C22.4014 18.5774 22.0666 18.6805 21.7632 18.8482C21.4597 19.0158 21.1942 19.2443 20.9832 19.5193C20.7722 19.7943 20.6202 20.11 20.5368 20.4464L20.3583 21.1964C19.6848 23.899 18.2899 26.3678 16.3225 28.3393L15.3047 29.3393C15.046 29.0135 14.7177 28.7498 14.3438 28.5675C13.9699 28.3851 13.5599 28.2889 13.144 28.2857H11.8404C11.1077 28.2857 10.4045 28.5743 9.88312 29.089C9.36172 29.6037 9.06408 30.3031 9.05469 31.0357V42.5357C9.05469 43.2745 9.34818 43.9831 9.8706 44.5055C10.393 45.028 11.1016 45.3214 11.8404 45.3214H13.144C13.6235 45.3203 14.0945 45.1947 14.5108 44.9568C14.9272 44.7189 15.2746 44.3769 15.519 43.9643L15.769 44.0893C17.3829 44.8953 19.1614 45.317 20.9654 45.3214H27.3761C28.4359 45.3266 29.4804 45.0682 30.4155 44.5694C31.3506 44.0707 32.1471 43.3473 32.7333 42.4643C33.9808 40.5989 34.6459 38.4049 34.644 36.1607V31.7143C34.644 31.2563 34.5532 30.8029 34.3769 30.3803C34.2006 29.9576 33.9422 29.5741 33.6167 29.252C33.2912 28.9298 32.9051 28.6754 32.4807 28.5034C32.0562 28.3314 31.6019 28.2453 31.144 28.25ZM14.0725 42.5357C14.0725 42.8009 13.9672 43.0553 13.7797 43.2428C13.5921 43.4304 13.3378 43.5357 13.0725 43.5357H11.8404C11.5752 43.5357 11.3208 43.4304 11.1333 43.2428C10.9458 43.0553 10.8404 42.8009 10.8404 42.5357V31.0357C10.8404 30.7705 10.9458 30.5162 11.1333 30.3286C11.3208 30.1411 11.5752 30.0357 11.8404 30.0357H13.144C13.3966 30.0538 13.633 30.1671 13.8053 30.3527C13.9777 30.5383 14.0732 30.7824 14.0725 31.0357V42.5357ZM32.8225 36.1607C32.83 38.0663 32.2706 39.9311 31.2154 41.5179C30.7932 42.149 30.2221 42.6665 29.5525 43.0247C28.8829 43.3829 28.1355 43.5706 27.3761 43.5714H20.9654C19.4408 43.5699 17.9372 43.2154 16.5725 42.5357L15.8583 42.1786V31.2143L17.5011 29.5714C19.6992 27.3738 21.2605 24.6214 22.019 21.6072L22.1975 20.875C22.2506 20.6791 22.379 20.5122 22.5547 20.4107C22.6448 20.3714 22.7421 20.3511 22.8404 20.3511C22.9387 20.3511 23.036 20.3714 23.1261 20.4107C23.478 20.5278 23.8034 20.713 24.0837 20.9559C24.3639 21.1988 24.5935 21.4945 24.7594 21.8262C24.9252 22.1579 25.0241 22.5191 25.0502 22.889C25.0764 23.259 25.0294 23.6304 24.9118 23.9822L23.4118 29C23.373 29.1331 23.3657 29.2734 23.3905 29.4097C23.4153 29.5461 23.4715 29.6748 23.5547 29.7857C23.6358 29.8988 23.7432 29.9903 23.8677 30.0526C23.9921 30.1148 24.1299 30.1458 24.269 30.1429H31.0368C31.2573 30.1429 31.4755 30.1863 31.6792 30.2706C31.8828 30.355 32.0679 30.4786 32.2238 30.6345C32.3796 30.7904 32.5033 30.9754 32.5876 31.1791C32.672 31.3827 32.7154 31.601 32.7154 31.8214L32.8225 36.1607Z" fill="#FF9F0D"/>
<path d="M17.6426 11.0358L17.0712 14.3394C17.0024 14.705 17.0399 15.0827 17.1792 15.4276C17.3184 15.7726 17.5536 16.0704 17.8569 16.2858C18.1926 16.5361 18.5989 16.6736 19.0176 16.6787C19.3408 16.6736 19.6585 16.5941 19.9462 16.4466L22.9997 14.8751L25.9819 16.4466C26.3098 16.6197 26.68 16.6965 27.0497 16.6681C27.4195 16.6396 27.7736 16.5071 28.0712 16.2858C28.3713 16.0718 28.6045 15.7769 28.7436 15.4355C28.8827 15.094 28.922 14.7201 28.8569 14.3573L28.3569 11.0358L30.6962 8.71441C30.9663 8.4589 31.1584 8.13196 31.25 7.77159C31.3417 7.41123 31.3292 7.03224 31.214 6.6787C31.0986 6.32553 30.8871 6.01149 30.6033 5.77178C30.3194 5.53207 29.9744 5.37617 29.6069 5.32156L26.2676 4.83942L24.7854 1.78584C24.6187 1.45528 24.3635 1.17748 24.0482 0.983385C23.7329 0.789292 23.37 0.686523 22.9997 0.686523C22.6295 0.686523 22.2665 0.789292 21.9512 0.983385C21.636 1.17748 21.3807 1.45528 21.214 1.78584L19.7319 4.8037L16.3926 5.28584C16.0251 5.34045 15.68 5.49635 15.3962 5.73606C15.1123 5.97577 14.9008 6.28982 14.7854 6.64299C14.6628 7.00143 14.6465 7.38768 14.7383 7.75521C14.8302 8.12273 15.0264 8.45585 15.3033 8.71441L17.6426 11.0358ZM16.5712 7.0537L20.3747 6.50013C20.5465 6.51125 20.7178 6.47144 20.8671 6.38567C21.0164 6.29991 21.1371 6.17201 21.214 6.01799L22.9997 2.57156C23.0154 2.53736 23.0405 2.50839 23.0722 2.48807C23.1039 2.46776 23.1407 2.45696 23.1783 2.45696C23.2159 2.45696 23.2527 2.46776 23.2844 2.48807C23.316 2.50839 23.3412 2.53736 23.3569 2.57156L25.1426 6.01799C25.2067 6.14838 25.3024 6.26074 25.4209 6.34492C25.5393 6.4291 25.6769 6.48244 25.8212 6.50013L29.6247 7.0537C29.6617 7.06124 29.6961 7.07842 29.7243 7.10351C29.7525 7.1286 29.7736 7.1607 29.7854 7.19656C29.8027 7.22642 29.8118 7.26029 29.8118 7.29477C29.8118 7.32925 29.8027 7.36313 29.7854 7.39299L27.0354 10.0716C26.9314 10.1755 26.8531 10.3022 26.8066 10.4417C26.7601 10.5812 26.7467 10.7296 26.7676 10.8751L27.4283 14.643C27.4404 14.681 27.438 14.7221 27.4215 14.7584C27.405 14.7947 27.3756 14.8236 27.339 14.8394C27.3081 14.8626 27.2705 14.8751 27.2319 14.8751C27.1932 14.8751 27.1556 14.8626 27.1247 14.8394L23.7319 13.0537C23.6064 12.9833 23.465 12.9463 23.3212 12.9463C23.1773 12.9463 23.0359 12.9833 22.9104 13.0537L19.4997 14.8394C19.4716 14.8611 19.437 14.8729 19.4015 14.8729C19.366 14.8729 19.3314 14.8611 19.3033 14.8394C19.2667 14.8236 19.2373 14.7947 19.2208 14.7584C19.2043 14.7221 19.2019 14.681 19.214 14.643L19.8747 10.8751C19.8956 10.7296 19.8822 10.5812 19.8357 10.4417C19.7892 10.3022 19.7109 10.1755 19.6069 10.0716L16.8569 7.39299C16.8396 7.36313 16.8305 7.32925 16.8305 7.29477C16.8305 7.26029 16.8396 7.22642 16.8569 7.19656C16.8105 7.19919 16.7645 7.18668 16.7259 7.16091C16.6872 7.13515 16.658 7.09752 16.6426 7.0537H16.5712Z" fill="#FF9F0D"/>
<path d="M11.1076 21.6608C11.3736 21.6656 11.6373 21.611 11.8795 21.5009C12.1216 21.3907 12.3361 21.2279 12.5073 21.0242C12.6785 20.8205 12.8019 20.5812 12.8687 20.3237C12.9355 20.0661 12.9439 19.797 12.8933 19.5358L12.4112 16.8215L14.4112 14.8751C14.6632 14.6438 14.8434 14.3451 14.9306 14.0144C15.0177 13.6836 15.008 13.3348 14.9027 13.0095C14.7974 12.6841 14.6008 12.3958 14.3364 12.1789C14.072 11.9619 13.7509 11.8255 13.4112 11.7858L10.679 11.3929L9.44689 8.91078C9.28249 8.62518 9.04572 8.38795 8.76044 8.223C8.47515 8.05804 8.15143 7.97119 7.82189 7.97119C7.49236 7.97119 7.16864 8.05804 6.88335 8.223C6.59807 8.38795 6.3613 8.62518 6.1969 8.91078L4.96475 11.3929L2.23261 11.7858C1.89292 11.8255 1.57178 11.9619 1.30737 12.1789C1.04296 12.3958 0.846414 12.6841 0.741088 13.0095C0.635761 13.3348 0.62609 13.6836 0.713223 14.0144C0.800356 14.3451 0.980629 14.6438 1.23261 14.8751L3.21475 16.8215L2.73261 19.5358C2.67075 19.8723 2.70686 20.2195 2.83666 20.5361C2.96645 20.8526 3.18446 21.1253 3.46475 21.3215C3.73851 21.5216 4.06357 21.6396 4.40194 21.6617C4.7403 21.6839 5.07798 21.6092 5.37547 21.4465L7.82189 20.1608L10.2683 21.4465C10.5263 21.5857 10.8145 21.6593 11.1076 21.6608ZM7.82189 18.2679C7.67797 18.267 7.53633 18.304 7.41118 18.3751L4.50047 19.8393L5.14332 16.6608C5.15326 16.5079 5.12595 16.355 5.06375 16.215C5.00154 16.075 4.90629 15.9523 4.78618 15.8572L2.48261 13.5536L5.69689 13.0893C5.839 13.072 5.97431 13.0186 6.08996 12.9342C6.20561 12.8498 6.29774 12.7373 6.35761 12.6072L7.83975 9.69649L9.28618 12.6072C9.34605 12.7373 9.43818 12.8498 9.55383 12.9342C9.66948 13.0186 9.80479 13.072 9.9469 13.0893L13.1612 13.6072L10.8576 15.8572C10.7536 15.9611 10.6753 16.0879 10.6288 16.2274C10.5823 16.3668 10.5689 16.5152 10.5898 16.6608L11.1076 19.8751L8.23261 18.3751C8.10746 18.304 7.96582 18.267 7.82189 18.2679Z" fill="#FF9F0D"/>
<path d="M45.2329 13.0179C45.1309 12.6948 44.939 12.4073 44.6797 12.1891C44.4204 11.971 44.1044 11.8311 43.7686 11.7858L41.0365 11.3929L39.8043 8.91078C39.6399 8.62518 39.4031 8.38795 39.1179 8.223C38.8326 8.05804 38.5089 7.97119 38.1793 7.97119C37.8498 7.97119 37.5261 8.05804 37.2408 8.223C36.9555 8.38795 36.7187 8.62518 36.5543 8.91078L35.3222 11.3929L32.59 11.7858C32.2503 11.8255 31.9292 11.9619 31.6648 12.1789C31.4004 12.3958 31.2038 12.6841 31.0985 13.0095C30.9932 13.3348 30.9835 13.6836 31.0706 14.0144C31.1578 14.3451 31.3381 14.6438 31.59 14.8751L33.5722 16.8215L33.09 19.5358C33.0282 19.8723 33.0643 20.2195 33.1941 20.5361C33.3239 20.8526 33.5419 21.1253 33.8222 21.3215C34.0959 21.5216 34.421 21.6396 34.7594 21.6617C35.0977 21.6839 35.4354 21.6092 35.7329 21.4465L38.1793 20.1608L40.6257 21.4465C40.8837 21.5857 41.1719 21.6593 41.465 21.6608C41.731 21.6656 41.9947 21.611 42.2369 21.5009C42.4791 21.3907 42.6936 21.2279 42.8647 21.0242C43.0359 20.8205 43.1594 20.5812 43.2261 20.3237C43.2929 20.0661 43.3013 19.797 43.2507 19.5358L42.7686 16.8215L44.7507 14.8751C44.9995 14.6435 45.177 14.3457 45.2624 14.0167C45.3478 13.6878 45.3376 13.3413 45.2329 13.0179ZM41.215 15.8572C41.111 15.9611 41.0327 16.0879 40.9862 16.2274C40.9397 16.3668 40.9263 16.5152 40.9472 16.6608L41.465 19.8751L38.59 18.3751C38.4646 18.3047 38.3232 18.2677 38.1793 18.2677C38.0355 18.2677 37.894 18.3047 37.7686 18.3751L34.8579 19.8393L35.5007 16.6608C35.5107 16.5079 35.4834 16.355 35.4212 16.215C35.359 16.075 35.2637 15.9523 35.1436 15.8572L32.84 13.5536L36.0543 13.0893C36.1964 13.072 36.3317 13.0186 36.4474 12.9342C36.563 12.8498 36.6552 12.7373 36.715 12.6072L38.1972 9.69649L39.6436 12.6072C39.7035 12.7373 39.7956 12.8498 39.9113 12.9342C40.0269 13.0186 40.1622 13.072 40.3043 13.0893L43.5186 13.6072L41.215 15.8572Z" fill="#FF9F0D"/>
</svg>
