<svg width="45" height="45" viewBox="0 0 45 45" fill="none" xmlns="http://www.w3.org/2000/svg">
<g clip-path="url(#clip0_1_3085)">
<path d="M22.4213 5.71816C22.9101 5.71816 23.3064 5.32186 23.3064 4.83302V0.885146C23.3064 0.396299 22.9101 0 22.4213 0C21.9324 0 21.5361 0.396299 21.5361 0.885146V4.83302C21.5362 5.32186 21.9325 5.71816 22.4213 5.71816Z" fill="white"/>
<path d="M44.0574 30.409L42.4937 28.8498C41.9374 28.2942 41.1961 27.9882 40.4061 27.9882C39.901 27.9882 39.4161 28.1138 38.9864 28.3493L36.0398 25.4062L36.1833 25.2629C37.3787 24.0651 37.3783 22.1187 36.1832 20.925C35.7562 20.4972 35.2233 20.2119 34.6424 20.0918C34.7224 19.8157 34.7645 19.5266 34.7645 19.2307C34.7645 18.4084 34.4451 17.6375 33.867 17.0617C33.4398 16.6338 32.907 16.3485 32.3262 16.2285C32.4061 15.9524 32.4482 15.6634 32.4482 15.3673C32.4482 14.545 32.1288 13.7741 31.5497 13.1975C31.1124 12.7607 30.5748 12.4842 30.0102 12.3665C30.3122 11.3252 30.0542 10.1538 29.235 9.33321C28.5532 8.65425 27.628 8.36246 26.7363 8.45703L20.8973 7.3518C20.0068 7.18288 18.8947 7.07117 18.1927 7.71145C18.1484 7.75188 18.1033 7.79837 18.0588 7.85014C16.9704 7.4534 15.7009 7.68965 14.8292 8.5603C14.251 9.13783 13.9325 9.90845 13.9325 10.7302C13.9325 11.0262 13.9744 11.3153 14.0543 11.5915C13.4741 11.7114 12.9419 11.9964 12.5162 12.4228C11.9369 12.9998 11.6174 13.7696 11.6168 14.5904C11.6165 14.8871 11.6586 15.1771 11.7389 15.454C11.1584 15.5737 10.6259 15.8581 10.1989 16.2846C9.61953 16.8633 9.30049 17.6344 9.30049 18.4557C9.30049 19.0848 9.48831 19.6842 9.83636 20.1904C9.3969 20.3394 8.99436 20.5873 8.6573 20.924C7.46111 22.1187 7.46067 24.0652 8.6581 25.2647L8.80109 25.4071L5.85412 28.3487C4.75892 27.833 3.40953 28.0262 2.50575 28.9289L0.941123 30.4891C0.3846 31.0449 0.0782129 31.7864 0.078125 32.5768C0.078125 33.3672 0.3846 34.1088 0.941123 34.6647L2.89379 36.615C3.23964 36.9605 3.80012 36.9601 4.14553 36.6143C4.49102 36.2684 4.49067 35.708 4.14482 35.3625L2.19216 33.4122C1.9705 33.1909 1.84842 32.8941 1.84842 32.5768C1.84842 32.2597 1.9705 31.963 2.19163 31.7422L3.75635 30.1818C4.14728 29.7913 4.74564 29.7331 5.20004 30.0048C5.23203 30.0529 5.26903 30.0986 5.3114 30.141C5.38725 30.2171 5.47382 30.2753 5.56575 30.318L14.5388 39.2778C14.5814 39.3707 14.6399 39.4582 14.7163 39.5346C14.7907 39.6091 14.8755 39.6666 14.9655 39.709C15.1552 39.9235 15.2601 40.1976 15.2601 40.4899C15.2601 40.8072 15.138 41.1038 14.9163 41.3252L13.3532 42.8865C12.8913 43.3463 12.1401 43.3463 11.6796 42.8879L9.72693 40.9351C9.38126 40.5894 8.82087 40.5894 8.47519 40.9351C8.12952 41.2807 8.12952 41.8411 8.47519 42.1868L10.4293 44.1411C11.0044 44.7138 11.7598 45.0001 12.5154 45.0001C13.2713 45.0001 14.0275 44.7134 14.6034 44.1401L16.1675 42.5778C16.724 42.0219 17.0305 41.2805 17.0305 40.4899C17.0305 39.9257 16.8736 39.387 16.5819 38.9224L19.8985 35.6098C19.902 35.6062 19.9055 35.6026 19.9091 35.599C20.2889 35.2064 21.3465 35.2798 22.3693 35.3509C23.096 35.4014 23.9062 35.4576 24.6977 35.3663L28.3297 38.994C28.0944 39.423 27.9688 39.9073 27.9688 40.4116C27.9688 41.2013 28.2753 41.9423 28.8318 42.4982L30.396 44.0605C30.9522 44.616 31.6935 44.9221 32.4835 44.9221C33.2734 44.9221 34.0147 44.6161 34.571 44.0605L44.058 34.585C44.6145 34.0292 44.921 33.2877 44.921 32.4972C44.9209 31.7068 44.6144 30.9654 44.0574 30.409ZM20.5677 9.09116L24.4074 9.81793L22.1091 12.1153C21.7536 11.9444 21.2664 11.6257 20.7318 11.1144C20.0001 10.4144 19.4767 9.60628 19.4291 9.10223C19.429 9.10197 19.429 9.1017 19.429 9.10144C19.429 9.10135 19.4289 9.10127 19.4289 9.10118C19.4255 9.06497 19.4246 9.03605 19.425 9.01399C19.5408 8.98586 19.8482 8.95466 20.5677 9.09116ZM16.0802 9.81283C16.5286 9.36485 17.2252 9.31317 17.7319 9.65629C18.0191 10.8602 19.0461 11.9514 19.5081 12.3935C19.8505 12.7211 20.9492 13.7035 22.0583 13.9735C22.2083 14.1885 22.2899 14.4449 22.2899 14.7155C22.2899 15.0639 22.1559 15.3898 21.9116 15.6337C21.6681 15.8777 21.3418 16.012 20.9927 16.012C20.6435 16.012 20.3171 15.8777 20.0724 15.6326L20.0724 15.6325L20.0719 15.6321L16.0801 11.6475C15.8367 11.4044 15.7027 11.0786 15.7027 10.7302C15.7028 10.3817 15.8368 10.0559 16.0802 9.81283ZM13.7673 13.6754C14.0108 13.4315 14.3368 13.2971 14.6854 13.2971C15.0344 13.2971 15.3614 13.4317 15.6066 13.6766L18.8209 16.8845C19.327 17.3915 19.327 18.2164 18.8226 18.7216C18.5778 18.9655 18.2503 19.0998 17.9006 19.0998C17.5509 19.0998 17.2234 18.9655 16.9796 18.7227L16.9795 18.7226L14.541 16.2846C14.5372 16.2808 14.5331 16.2773 14.5292 16.2734L13.7663 15.5109C13.5215 15.2664 13.3868 14.9399 13.3871 14.5917C13.3874 14.2446 13.5217 13.9199 13.7673 13.6754ZM11.4499 17.5371C11.6937 17.2937 12.0204 17.1597 12.37 17.1597C12.7167 17.1597 13.0406 17.2918 13.2833 17.5309L15.7292 19.9758C15.9731 20.2187 16.1075 20.5442 16.1075 20.8922C16.1075 21.2402 15.9731 21.5656 15.7283 21.8095C15.4846 22.0528 15.1583 22.1869 14.8093 22.1869C14.4598 22.1869 14.1324 22.0525 13.8884 21.8095L13.0016 20.9239C13.0015 20.9236 13.0012 20.9234 13.001 20.9233L11.45 19.3741C11.2055 19.1298 11.0709 18.8036 11.0709 18.4556C11.0709 18.1076 11.2055 17.7813 11.4499 17.5371ZM9.90834 22.1765C10.1531 21.932 10.4802 21.7973 10.8294 21.7973C11.1785 21.7973 11.5056 21.9319 11.7503 22.1762L12.6382 23.0631C12.8822 23.3061 13.0165 23.6315 13.0165 23.9796C13.0165 24.3276 12.8821 24.653 12.6364 24.8978C12.3928 25.1417 12.0665 25.2761 11.7174 25.2761C11.3682 25.2761 11.0419 25.1418 10.7966 24.8961L10.6854 24.7853C10.6839 24.7839 10.6827 24.7823 10.6813 24.7809C10.6797 24.7793 10.6779 24.7779 10.6762 24.7763L9.90922 24.0123C9.40306 23.505 9.40262 22.6816 9.90834 22.1765ZM27.9465 32.2363C27.601 31.8903 27.0405 31.8901 26.6947 32.2355L25.9072 33.022C25.1589 33.7703 23.8031 33.6761 22.4918 33.5851C21.0679 33.4862 19.5955 33.384 18.6426 34.3623L15.3823 37.6186L7.22935 29.4776L10.1146 26.5975C10.5915 26.8898 11.1418 27.0465 11.7176 27.0465C12.5401 27.0465 13.3115 26.7276 13.8876 26.1505C14.4676 25.5728 14.7871 24.802 14.7871 23.9797C14.7871 23.972 14.7865 23.9644 14.7865 23.9568C14.7942 23.9569 14.8018 23.9573 14.8095 23.9573C15.6309 23.9573 16.4016 23.6394 16.9785 23.0632C17.5585 22.4856 17.878 21.7146 17.878 20.8924C17.878 20.8848 17.8775 20.8772 17.8775 20.8696C17.8852 20.8696 17.8929 20.8701 17.9008 20.8701C18.7219 20.8701 19.4931 20.5525 20.0739 19.9741C20.6768 19.3702 20.975 18.5752 20.9693 17.7818C20.9772 17.7819 20.9851 17.7823 20.993 17.7823C21.8156 17.7822 22.5868 17.4634 23.1638 16.8854C23.7421 16.3079 24.0606 15.5372 24.0606 14.7155C24.0606 14.1407 23.9043 13.5913 23.6129 13.1154L26.1418 10.5876C26.3303 10.3999 26.5626 10.2822 26.8062 10.2336C26.8326 10.2307 26.8586 10.2265 26.8843 10.2214C27.2751 10.1676 27.6854 10.2881 27.9843 10.5857C28.4904 11.0928 28.4904 11.9177 27.9861 12.4229L27.2159 13.1899C27.2134 13.1925 27.2107 13.1948 27.2081 13.1973L26.321 14.0829C25.9751 14.4283 25.9747 14.9888 26.3202 15.3346C26.6658 15.6806 27.2262 15.6808 27.572 15.3354L28.3452 14.5632C28.3454 14.5631 28.3456 14.5629 28.3458 14.5627L28.4627 14.4462C28.9702 13.9433 29.7925 13.9444 30.2996 14.4507C30.5436 14.6937 30.6779 15.0191 30.6779 15.3672C30.6779 15.7151 30.5436 16.0406 30.2976 16.2854L29.5231 17.0616C29.523 17.0617 29.5229 17.0618 29.5228 17.062L28.6358 17.9453C28.2894 18.2903 28.2883 18.8508 28.6333 19.1971C28.9782 19.5435 29.5386 19.5445 29.885 19.1996L30.776 18.3122C31.0196 18.0682 31.3459 17.9339 31.695 17.9339C32.0442 17.9339 32.3706 18.0682 32.6159 18.314C32.8599 18.557 32.9942 18.8824 32.9942 19.2305C32.9942 19.5784 32.8599 19.9039 32.6145 20.1482L31.0703 21.6931C30.7247 22.0389 30.7248 22.5992 31.0705 22.9448C31.2433 23.1176 31.4698 23.2039 31.6962 23.2039C31.9228 23.2039 32.1494 23.1174 32.3222 22.9446L33.079 22.1875C33.0833 22.1833 33.088 22.1797 33.0923 22.1754C33.3358 21.9314 33.6622 21.7972 34.0113 21.7972C34.3605 21.7972 34.6868 21.9314 34.9312 22.1763C35.4369 22.6814 35.4364 23.505 34.9312 24.011L34.1618 24.7796C34.1615 24.7799 34.1611 24.7802 34.1609 24.7804C34.1606 24.7807 34.1603 24.781 34.1601 24.7813L32.9388 26.0011C32.5929 26.3466 32.5926 26.9071 32.938 27.253C33.1108 27.426 33.3376 27.5126 33.5643 27.5126C33.7906 27.5126 34.017 27.4263 34.1898 27.2538L34.7872 26.6571L37.6504 29.5169L29.4981 37.6593L26.5771 34.7419C26.7808 34.6109 26.9756 34.4569 27.1585 34.274L27.9456 33.4879C28.2916 33.1426 28.292 32.5821 27.9465 32.2363ZM42.8069 33.3324L33.3198 42.8079C33.0979 43.0296 32.8009 43.1517 32.4834 43.1517C32.1659 43.1517 31.8689 43.0296 31.6469 42.8078L30.0827 41.2456C29.861 41.0243 29.7389 40.7281 29.7389 40.4116C29.7389 40.0952 29.861 39.799 30.0827 39.5776L39.5697 30.1021C39.7917 29.8804 40.0887 29.7583 40.4062 29.7583C40.7237 29.7583 41.0207 29.8804 41.2433 30.1026L42.8069 31.6619C43.0286 31.8833 43.1507 32.1798 43.1507 32.4971C43.1506 32.8145 43.0285 33.1111 42.8069 33.3324Z" fill="white"/>
<path d="M10.6679 4.97194C10.8407 5.14438 11.0669 5.23051 11.2932 5.23051C11.5199 5.23051 11.7468 5.14385 11.9196 4.97062C12.265 4.62459 12.2644 4.0642 11.9184 3.71888L8.693 0.499884C8.34706 0.154562 7.78658 0.155002 7.44126 0.501115C7.09594 0.84714 7.09646 1.40753 7.44249 1.75285L10.6679 4.97194Z" fill="white"/>
<path d="M33.5502 5.23048C33.7765 5.23048 34.0029 5.14417 34.1757 4.97164L37.3986 1.75256C37.7445 1.40715 37.7448 0.846668 37.3993 0.500818C37.0539 0.154968 36.4935 0.154617 36.1476 0.500115L32.9246 3.7192C32.5788 4.06461 32.5784 4.62509 32.9239 4.97094C33.0968 5.14399 33.3235 5.23048 33.5502 5.23048Z" fill="white"/>
<path d="M5.5215 38.0747C5.17882 38.4232 5.18357 38.9837 5.53223 39.3264L5.53478 39.3289C5.70678 39.498 5.93011 39.5822 6.15335 39.5822C6.38248 39.5822 6.61161 39.4935 6.7852 39.3169C7.12788 38.9683 7.12182 38.4066 6.77324 38.064C6.42476 37.7213 5.86437 37.7261 5.5215 38.0747Z" fill="white"/>
<path d="M30.112 30.9609C30.2467 30.9609 30.3832 30.9302 30.5115 30.8656C30.9479 30.6454 31.1233 30.1132 30.9032 29.6767C30.683 29.2402 30.1507 29.0648 29.7143 29.285L29.7094 29.2874C29.2729 29.5076 29.1 30.0386 29.3201 30.4751C29.4755 30.7834 29.788 30.9609 30.112 30.9609Z" fill="white"/>
</g>
<defs>
<clipPath id="clip0_1_3085">
<rect width="45" height="45" fill="white"/>
</clipPath>
</defs>
</svg>
