<svg width="42" height="42" viewBox="0 0 42 42" fill="none" xmlns="http://www.w3.org/2000/svg">
<path d="M21 0.375C9.62541 0.375 0.375 9.62541 0.375 21C0.375 32.3746 9.62541 41.625 21 41.625C32.3746 41.625 41.625 32.3746 41.625 21C41.625 9.62541 32.3746 0.375 21 0.375ZM21 3.125C30.8884 3.125 38.8857 11.1116 38.8857 21C38.8857 30.8884 30.8884 38.8857 21 38.8857C11.1116 38.8857 3.125 30.8884 3.125 21C3.125 11.1116 11.1116 3.125 21 3.125ZM20.9812 10.0081C20.6179 10.0145 20.272 10.1643 20.0189 10.425C19.7658 10.6857 19.6261 11.0359 19.6304 11.3992V12.5566C17.4102 12.9731 15.5107 14.4028 15.5107 16.8804C15.5107 18.5991 16.2856 19.9892 17.3262 20.7986C18.3668 21.6079 19.5417 21.9668 20.573 22.3105C21.6042 22.6543 22.4945 22.9829 23.0007 23.3767C23.507 23.7705 23.75 24.1018 23.75 25.1331C23.75 27.4247 18.2607 27.4247 18.2607 25.1331C18.2648 24.9499 18.2322 24.7678 18.165 24.5974C18.0977 24.4271 17.9971 24.2718 17.869 24.1409C17.7409 24.0099 17.5879 23.9059 17.4191 23.8348C17.2503 23.7638 17.0689 23.7272 16.8857 23.7272C16.7026 23.7272 16.5212 23.7638 16.3524 23.8348C16.1835 23.9059 16.0306 24.0099 15.9025 24.1409C15.7744 24.2718 15.6738 24.4271 15.6065 24.5974C15.5392 24.7678 15.5067 24.9499 15.5107 25.1331C15.5107 27.6087 17.4119 29.0411 19.6304 29.4595V30.6116C19.6263 30.7947 19.6589 30.9768 19.7261 31.1472C19.7934 31.3176 19.8941 31.4728 20.0221 31.6037C20.1502 31.7347 20.3032 31.8387 20.472 31.9098C20.6409 31.9808 20.8222 32.0174 21.0054 32.0174C21.1885 32.0174 21.3699 31.9808 21.5387 31.9098C21.7076 31.8387 21.8605 31.7347 21.9886 31.6037C22.1167 31.4728 22.2173 31.3176 22.2846 31.1472C22.3519 30.9768 22.3844 30.7947 22.3804 30.6116V29.4595C24.5992 29.0413 26.5027 27.6091 26.5027 25.1331C26.5027 23.4143 25.7252 22.0242 24.6846 21.2148C23.644 20.4055 22.469 20.0439 21.4377 19.7002C20.4065 19.3564 19.5163 19.0305 19.01 18.6367C18.5037 18.2429 18.2607 17.9116 18.2607 16.8804C18.2607 14.5887 23.75 14.5887 23.75 16.8804C23.75 17.2454 23.895 17.5955 24.1531 17.8536C24.4112 18.1117 24.7613 18.2567 25.1263 18.2567C25.4914 18.2567 25.8414 18.1117 26.0996 17.8536C26.3577 17.5955 26.5027 17.2454 26.5027 16.8804C26.5027 14.4065 24.5986 12.9783 22.3804 12.5593V11.3992C22.3825 11.2152 22.3478 11.0327 22.2781 10.8624C22.2085 10.6921 22.1054 10.5375 21.9749 10.4078C21.8444 10.2781 21.6892 10.1759 21.5186 10.1072C21.3479 10.0385 21.1651 10.0048 20.9812 10.0081H20.9812Z" fill="white"/>
</svg>
