<svg width="44" height="44" viewBox="0 0 44 44" fill="none" xmlns="http://www.w3.org/2000/svg">
<path d="M12.8305 21.3188C10.8885 21.3188 9.30859 22.8987 9.30859 24.8407V39.7033C9.30859 40.1779 9.69334 40.5627 10.168 40.5627H22.4524C22.9269 40.5627 23.3118 40.1779 23.3118 39.7033V24.8407C23.3118 22.8987 21.7319 21.3188 19.79 21.3188H12.8305ZM21.593 24.8407V38.8439H11.0273V24.8407C11.0273 23.8633 11.853 23.0376 12.8305 23.0376H19.7899C20.7672 23.0376 21.593 23.8633 21.593 24.8407Z" fill="white"/>
<path d="M40.9063 0H25.4376C24.963 0 24.5782 0.384742 24.5782 0.859375V4.72656C24.5782 5.2012 24.963 5.58594 25.4376 5.58594H30.5938V10.3125C30.5938 10.7871 30.9786 11.1719 31.4531 11.1719H32.3125V17.6577C32.2061 20.4544 28.197 20.4522 28.0916 17.6577V12.6204C27.7729 4.24523 15.7669 4.25159 15.4511 12.6204V14.2442H13.2605C12.7859 14.2442 12.4011 14.629 12.4011 15.1036V17.8943C8.76305 18.117 5.87142 21.1474 5.87142 24.8405V33.1312H5.12712C3.53203 33.1312 2.23438 34.4289 2.23438 36.0239V41.1073C2.23446 42.7023 3.53212 44 5.12712 44H27.4939C29.089 44 30.3866 42.7023 30.3866 41.1073V36.0239C30.3866 34.4288 29.0889 33.1312 27.4939 33.1312H26.7496V24.8405C26.7496 21.1474 23.858 18.117 20.22 17.8943V15.1036C20.22 14.629 19.8352 14.2442 19.3606 14.2442H17.17V12.6204C17.4021 6.52283 26.143 6.52747 26.3729 12.6204V17.6577C26.566 22.7319 33.84 22.7281 34.0313 17.6577V11.1719H34.8907C35.3653 11.1719 35.7501 10.7871 35.7501 10.3125V5.58594H40.9063C41.3809 5.58594 41.7657 5.2012 41.7657 4.72656V0.859375C41.7657 0.384742 41.3809 0 40.9063 0V0ZM3.95321 41.1073V36.0239C3.95321 35.3766 4.47984 34.85 5.1272 34.85H5.87151V42.2812H5.12712C4.47975 42.2812 3.95321 41.7546 3.95321 41.1073ZM27.4939 34.85C28.1412 34.85 28.6678 35.3766 28.6678 36.0239V41.1073C28.6678 41.7546 28.1412 42.2812 27.4939 42.2812H26.7496V34.85H27.4939ZM25.0308 24.8405V42.2812H7.59017V24.8405C7.59017 21.9508 9.94108 19.5999 12.8308 19.5999H19.7902C22.6799 19.5999 25.0308 21.9508 25.0308 24.8405ZM18.5011 17.8812H14.1199V15.963H18.5011V17.8812ZM34.0312 9.45312H32.3125V5.58594H34.0312V9.45312ZM40.047 3.86719H26.297V1.71875H40.047V3.86719Z" fill="white"/>
<path d="M19.0152 35.3389H13.6059C12.4669 35.3811 12.4677 37.0158 13.6059 37.0576H19.0152C20.1542 37.0153 20.1534 35.3807 19.0152 35.3389Z" fill="white"/>
<path d="M19.0152 31.834H13.6059C12.4669 31.8763 12.4677 33.5109 13.6059 33.5527H19.0152C20.1542 33.5105 20.1534 31.8758 19.0152 31.834Z" fill="white"/>
<path d="M19.0152 28.3286H13.6059C12.4669 28.3709 12.4677 30.0055 13.6059 30.0474H19.0152C20.1542 30.0051 20.1534 28.3705 19.0152 28.3286Z" fill="white"/>
<path d="M19.0152 24.8237H13.6059C12.4669 24.866 12.4677 26.5006 13.6059 26.5425H19.0152C20.1542 26.5002 20.1534 24.8656 19.0152 24.8237Z" fill="white"/>
</svg>
