<svg width="48" height="48" viewBox="0 0 48 48" fill="none" xmlns="http://www.w3.org/2000/svg">
<path d="M42.7505 8.9625V6C42.7505 5.5875 42.413 5.25 42.0005 5.25H6.00047C5.58797 5.25 5.25047 5.5875 5.25047 6V8.9625L2.25047 41.9325C2.22797 42.2175 2.36297 42.495 2.61047 42.645C2.85797 42.795 3.16547 42.7875 3.41297 42.6225L3.86297 42.3225C4.87547 41.6475 6.51047 41.25 8.25047 41.25C9.99048 41.25 11.6255 41.655 12.6305 42.3225L13.0805 42.6225C13.3355 42.7875 13.658 42.7875 13.913 42.6225L14.363 42.3225C15.3755 41.6475 17.0105 41.25 18.7505 41.25C20.4905 41.25 22.1255 41.655 23.1305 42.3225L23.5805 42.6225C23.8355 42.7875 24.158 42.7875 24.413 42.6225L24.863 42.3225C25.8755 41.6475 27.5105 41.25 29.2505 41.25C30.9905 41.25 32.6255 41.655 33.6305 42.3225L34.0805 42.6225C34.3355 42.7875 34.658 42.7875 34.913 42.6225L35.363 42.3225C36.3755 41.6475 38.0105 41.25 39.7505 41.25C41.4905 41.25 43.1255 41.655 44.1305 42.3225L44.5805 42.6225C44.708 42.705 44.8505 42.75 45.0005 42.75C45.1355 42.75 45.263 42.7125 45.383 42.645C45.6305 42.495 45.773 42.2175 45.743 41.9325L42.743 8.9625H42.7505ZM5.96297 17.6775L6.06797 17.61C6.95297 17.0175 8.40048 16.665 9.93797 16.665C11.4755 16.665 12.923 17.0175 13.808 17.61L13.853 17.64L13.553 24.2175C12.4205 23.67 10.9505 23.3625 9.37547 23.3625C7.88298 23.3625 6.48797 23.64 5.37797 24.1275L5.96297 17.6775ZM5.21297 25.9275L5.33297 25.845C6.26297 25.2225 7.77047 24.855 9.37547 24.855C10.9805 24.855 12.488 25.2225 13.418 25.845L13.478 25.8825L13.178 32.4525C12.0005 31.875 10.463 31.5525 8.82048 31.5525C7.17798 31.5525 5.79047 31.86 4.63547 32.3925L5.22047 25.9275H5.21297ZM9.93797 15.165C8.52047 15.165 7.18547 15.4275 6.12797 15.8925L6.68297 9.75H14.213L13.928 15.9675C12.8405 15.45 11.4305 15.1575 9.93797 15.1575V15.165ZM15.353 17.67L15.443 17.61C16.328 17.0175 17.7755 16.665 19.313 16.665C20.8505 16.665 22.298 17.0175 23.183 17.61L23.2505 17.655V24.1875C22.1255 23.655 20.6705 23.355 19.1255 23.355C17.5805 23.355 16.1705 23.6475 15.053 24.1575L15.353 17.6625V17.67ZM14.978 25.92L15.0905 25.845C16.0205 25.2225 17.528 24.855 19.133 24.855C20.738 24.855 22.2455 25.2225 23.1755 25.845L23.258 25.8975V32.43C22.088 31.8675 20.5655 31.5525 18.9455 31.5525C17.3255 31.5525 15.848 31.86 14.6855 32.4075L14.9855 25.92H14.978ZM23.2505 15.945C22.1705 15.4425 20.783 15.165 19.313 15.165C17.843 15.165 16.508 15.435 15.4355 15.915L15.7205 9.75H23.2505V15.945ZM24.7505 17.655L24.818 17.61C25.703 17.0175 27.1505 16.665 28.688 16.665C30.2255 16.665 31.673 17.0175 32.558 17.61L32.648 17.67L32.948 24.165C31.8305 23.655 30.398 23.3625 28.8755 23.3625C27.353 23.3625 25.8755 23.6625 24.7505 24.195V17.6625V17.655ZM24.7505 25.905L24.833 25.8525C25.763 25.23 27.2705 24.8625 28.8755 24.8625C30.4805 24.8625 31.988 25.23 32.918 25.8525L33.023 25.9275L33.323 32.415C32.1605 31.8675 30.6605 31.56 29.063 31.56C27.4655 31.56 25.9205 31.875 24.7505 32.4375V25.905ZM32.5655 15.915C31.493 15.435 30.1355 15.165 28.688 15.165C27.2405 15.165 25.8305 15.45 24.7505 15.945V9.75H32.2805L32.5655 15.915ZM42.038 17.6775L42.623 24.1275C41.513 23.6325 40.118 23.3625 38.6255 23.3625C37.0505 23.3625 35.5805 23.67 34.448 24.2175L34.148 17.64L34.193 17.61C35.078 17.0175 36.5255 16.665 38.063 16.665C39.6005 16.665 41.048 17.0175 41.933 17.61L42.038 17.6775ZM41.873 15.8925C40.8155 15.4275 39.4805 15.165 38.063 15.165C36.563 15.165 35.1605 15.4575 34.073 15.975L33.788 9.7575H41.318L41.873 15.8925ZM34.523 25.89L34.583 25.8525C35.513 25.23 37.0205 24.8625 38.6255 24.8625C40.2305 24.8625 41.738 25.23 42.668 25.8525L42.788 25.935L43.373 32.3775C42.218 31.8525 40.7555 31.56 39.188 31.56C37.5455 31.56 36.008 31.8825 34.8305 32.46L34.5305 25.89H34.523ZM6.75047 6.75H41.2505V8.25H6.75047V6.75ZM8.25047 39.75C6.61547 39.75 5.07797 40.0575 3.87797 40.605L4.46297 34.17L4.59797 34.08C5.56547 33.435 7.14047 33.045 8.81297 33.045C10.4855 33.045 12.0605 33.4275 13.028 34.08L13.103 34.125L12.803 40.6875C11.5805 40.08 9.97548 39.7425 8.25798 39.7425L8.25047 39.75ZM18.7505 39.75C17.078 39.75 15.5105 40.08 14.303 40.65L14.603 34.17L14.7305 34.0875C15.698 33.4425 17.273 33.0525 18.9455 33.0525C20.618 33.0525 22.193 33.435 23.1605 34.0875L23.258 34.155V40.68C22.043 40.0875 20.453 39.7575 18.758 39.7575L18.7505 39.75ZM29.2505 39.75C27.5555 39.75 25.9655 40.0875 24.7505 40.6725V34.1475L24.848 34.08C25.8155 33.435 27.3905 33.045 29.063 33.045C30.7355 33.045 32.3105 33.4275 33.278 34.08L33.4055 34.1625L33.7055 40.6425C32.498 40.065 30.9305 39.7425 29.258 39.7425L29.2505 39.75ZM39.7505 39.75C38.033 39.75 36.428 40.095 35.2055 40.695L34.9055 34.1325L34.9805 34.0875C35.948 33.4425 37.523 33.0525 39.1955 33.0525C40.868 33.0525 42.443 33.435 43.4105 34.0875L43.5455 34.1775L44.1305 40.6125C42.9305 40.065 41.393 39.7575 39.758 39.7575L39.7505 39.75Z" fill="white"/>
</svg>
