<svg width="32" height="36" viewBox="0 0 32 36" fill="none" xmlns="http://www.w3.org/2000/svg">
<path d="M31.2546 9.76401L31.254 9.7297C31.237 8.8322 31.2209 7.98448 31.2209 7.16889C31.2209 5.93337 30.2157 4.92824 28.9802 4.92824C24.1997 4.92824 20.5715 3.56526 17.5618 0.638938C16.6859 -0.212932 15.3135 -0.213003 14.4377 0.638867C11.4282 3.56526 7.8003 4.92824 3.02049 4.92824C1.78497 4.92824 0.779839 5.93337 0.779839 7.16889C0.779839 8.00192 0.763458 8.85807 0.746093 9.76471C0.665244 13.9971 0.564639 19.2644 2.33229 24.0456C3.30423 26.6747 4.7759 28.9594 6.70644 30.8363C8.90519 32.9741 11.785 34.6698 15.2657 35.8763C15.5024 35.9584 15.7493 36 15.9997 36C16.2503 36 16.4974 35.9583 16.7335 35.8764C20.2147 34.6697 23.0947 32.974 25.2937 30.8362C27.2244 28.9592 28.6962 26.6744 29.6683 24.0452C31.4361 19.2637 31.3354 13.9964 31.2546 9.76401ZM27.6899 23.3139C25.8257 28.3558 22.0159 31.8132 16.0421 33.8838C16.0148 33.8932 15.9848 33.8934 15.9566 33.8836C9.98379 31.8133 6.17431 28.356 4.31042 23.3143C2.68092 18.9065 2.77323 14.0712 2.85471 9.80499C2.87229 8.88816 2.88888 8.02216 2.88888 7.16889C2.88888 7.0964 2.94786 7.03735 3.02042 7.03735C8.38452 7.03735 12.4796 5.48469 15.908 2.15089C15.9337 2.12593 15.9666 2.11342 15.9996 2.11342C16.0326 2.11342 16.0656 2.126 16.0914 2.15096C19.5199 5.48469 23.6154 7.03735 28.9801 7.03735C29.0526 7.03735 29.1117 7.0964 29.1117 7.16889C29.1117 8.00452 29.1279 8.86194 29.1452 9.7697L29.1458 9.80415V9.80422C29.2274 14.0705 29.3197 18.9059 27.6899 23.3139Z" fill="#FF9F0D"/>
<path d="M22.5531 14.4909H19.1599V11.0973C19.1599 10.5149 18.6877 10.0427 18.1053 10.0427H13.8965C13.3141 10.0427 12.842 10.5149 12.842 11.0973V14.4909H9.44811C8.86571 14.4909 8.39355 14.9631 8.39355 15.5455V19.7543C8.39355 20.3367 8.86571 20.8088 9.44811 20.8088H12.842V24.2024C12.842 24.7848 13.3141 25.2569 13.8965 25.2569H18.1053C18.6877 25.2569 19.1599 24.7848 19.1599 24.2024V20.8088H22.5531C23.1355 20.8088 23.6077 20.3367 23.6077 19.7543V15.5455C23.6076 14.963 23.1355 14.4909 22.5531 14.4909ZM21.4985 18.6997H18.1053C17.5229 18.6997 17.0508 19.1719 17.0508 19.7543V23.1478H14.9511V19.7543C14.9511 19.1719 14.4789 18.6997 13.8965 18.6997H10.5027V16.6H13.8965C14.4789 16.6 14.9511 16.1279 14.9511 15.5455V12.1518H17.0508V15.5455C17.0508 16.1279 17.5229 16.6 18.1053 16.6H21.4986V18.6997H21.4985Z" fill="#FF9F0D"/>
</svg>
